<?xml version="1.0" standalone="no"?><!DOCTYPE svg PUBLIC "-//W3C//DTD SVG 1.1//EN" "http://www.w3.org/Graphics/SVG/1.1/DTD/svg11.dtd"><svg class="icon" width="200px" height="200.00px" viewBox="0 0 1024 1024" version="1.1" xmlns="http://www.w3.org/2000/svg"><path d="M950.857143 512l0 73.142857q0 30.285714-18.571429 51.714286t-48.285714 21.428571l-402.285714 0 167.428571 168q21.714286 20.571429 21.714286 51.428571t-21.714286 51.428571l-42.857143 43.428571q-21.142857 21.142857-51.428571 21.142857-29.714286 0-52-21.142857l-372-372.571429q-21.142857-21.142857-21.142857-51.428571 0-29.714286 21.142857-52l372-371.428571q21.714286-21.714286 52-21.714286 29.714286 0 51.428571 21.714286l42.857143 42.285714q21.714286 21.714286 21.714286 52t-21.714286 52l-167.428571 167.428571 402.285714 0q29.714286 0 48.285714 21.428571t18.571429 51.714286z" /></svg>