<?xml version="1.0" standalone="no"?><!DOCTYPE svg PUBLIC "-//W3C//DTD SVG 1.1//EN" "http://www.w3.org/Graphics/SVG/1.1/DTD/svg11.dtd"><svg class="icon" width="200px" height="126.42px" viewBox="0 0 1620 1024" version="1.1" xmlns="http://www.w3.org/2000/svg"><path d="M928.053248 665.426768c-4.983397 0-10.467579-1.496486-14.951169-4.983397-34.411358-24.920897-66.808817-35.398256-98.724074-31.910367-13.961336 1.496486-26.420317-8.483023-27.913869-21.939661-1.496486-13.961336 8.483023-25.924423 21.939661-27.913869 32.414087-3.488867 64.820348 2.991994 97.229544 18.942777 8.971092-41.884986 35.398256-85.263523 100.217626-111.198705-28.923264-50.358227-29.409377-104.698282-1.496486-162.558502-74.298094-19.450408-106.699465-60.831675-118.67918-102.714704-23.942801 13.464463-48.365847 20.945916-73.8022 22.446315-13.961336 0.990811-25.437331-9.967772-26.420317-23.942801-0.990811-13.961336 9.967772-25.437331 23.942801-26.417383 26.420317-1.496486 52.852371-13.464463 78.775816-35.398256 7.480475-5.980076 17.455093-7.480475 26.420317-3.488867 8.971092 3.994542 14.456252 12.467784 14.951169 22.446315 0.990811 37.397483 13.961336 89.254153 117.171935 104.698282 8.483023 0.990811 15.461734 6.483795 18.942777 14.456252 3.488867 7.979303 2.991994 16.958221-1.496486 23.942801-40.39339 62.833836-39.890649 115.175642 0.499807 164.550883 5.482226 6.483795 6.982624 15.461734 4.486524 23.942801-2.500012 7.979303-9.466009 14.456252-17.455093 16.447655-70.311377 17.95001-102.221744 54.849642-99.725644 115.175642 0.499807 9.466009-4.983397 18.440035-13.464463 22.939275-2.500012 1.496486-6.483795 2.500012-10.467579 2.500012zM686.724798 665.426768c-3.994542 0-7.979303-0.990811-11.966021-2.991994-8.483023-4.486524-13.464463-13.464463-13.464463-22.939275 1.993359-60.831675-29.409377-97.229544-99.228772-115.175642-8.483023-1.993359-14.951169-8.483023-17.455093-16.447655-2.500012-7.979303-0.990811-16.958221 4.486524-23.434191 39.890649-49.362526 40.39339-101.719981 0.990811-165.046777-4.486524-6.982624-4.983397-15.947848-1.496486-23.942801 3.488867-7.480475 10.976188-12.970525 18.942777-14.456252 102.714704-14.951169 116.170365-67.317426 117.171935-104.698282 0.499807-9.466009 5.980076-17.95001 14.951169-21.939661 8.483023-3.994542 18.942777-2.500012 26.420317 3.488867 26.420317 22.446315 52.361367 33.907638 78.775816 35.398256 13.961336 0.499807 24.437717 12.467784 23.942801 26.417383-0.499807 13.961336-12.467784 24.920897-26.420317 23.942801-24.920897-1.496486-49.863311-8.971092-73.8022-22.446315-12.467784 41.884986-44.874046 83.273099-118.67918 103.221358 27.423843 57.836746 26.923058 112.692257-1.496486 162.558502 64.820348 25.924423 91.249468 69.305894 99.725644 111.198705 32.908025-16.447655 65.318199-22.939275 98.222311-18.942777 13.961336 1.496486 23.942801 13.961336 21.939661 27.913869-1.496486 13.961336-13.961336 23.434191-27.913869 21.939661-31.910367-3.488867-65.318199 7.480475-99.725644 31.910367-3.994542 2.991994-8.971092 4.486524-13.961336 4.486524zM994.865976 863.864749c-7.480475 0-14.951169-3.488867-19.450408-9.466009l-86.763922-109.700263c-8.483023-10.976188-6.982624-26.417383 3.994542-35.398256 10.976188-8.483023 26.420317-6.982624 35.398256 3.994542l42.397508 53.350222 0-86.763922c0-13.961336 11.467192-24.920897 24.920897-24.920897s24.920897 11.467192 24.920897 24.920897l0 159.060833c0 10.467579-6.982624 19.950215-16.958221 23.942801-2.500012 0.499807-5.482226 0.990811-8.483023 0.990811zM620.398183 863.864749c-2.991994 0-5.482226-0.499807-8.483023-1.496486-9.967772-3.488867-16.958221-12.970525-16.958221-23.942801l0-159.060833c0-13.961336 11.467192-24.920897 24.920897-24.920897s24.920897 11.467192 24.920897 24.920897l0 86.763922 42.397508-53.350222c8.483023-10.976188 24.437717-12.467784 35.398256-3.994542 10.976188 8.483023 12.467784 24.437717 3.994542 35.398256l-86.763922 109.700263c-4.486524 6.483795-11.966021 9.967772-19.450408 9.967772zM800.401019 1023.936932l0 0c-137.119215-0.990811-255.299566-50.358227-351.537322-146.58229-97.229544-97.229544-146.58229-215.895031-146.58229-352.528132 0-137.119215 49.362526-255.299566 146.58229-352.032238 96.243624-97.229544 214.419085-146.58229 351.537322-146.58229 136.61354 0 255.299566 49.362526 352.528132 146.58229 97.229544 96.243624 146.58229 214.419085 146.58229 351.537322 0 136.61354-49.362526 255.299566-146.58229 352.528132-97.229544 97.229544-215.408917 146.58229-352.528132 147.098724l0 0zM800.401019 85.521741c-122.659051 0-223.884115 42.397508-310.146274 129.138934-87.259816 86.262159-129.636784 187.979206-129.636784 310.644125 0 122.163156 42.397508 223.884115 129.138934 311.137085 86.262159 86.262159 187.475486 128.641083 310.146274 129.138934 122.163156-0.990811 224.383922-43.378538 311.137085-129.636784 86.763922-86.763922 129.138934-188.972951 129.138934-311.137085 0-122.659051-42.397508-223.884115-129.138934-310.146274-86.262159-86.763922-187.979206-129.138934-310.644125-129.138934z" /></svg>