<?xml version="1.0" standalone="no"?><!DOCTYPE svg PUBLIC "-//W3C//DTD SVG 1.1//EN" "http://www.w3.org/Graphics/SVG/1.1/DTD/svg11.dtd"><svg class="icon" width="200px" height="200.00px" viewBox="0 0 1024 1024" version="1.1" xmlns="http://www.w3.org/2000/svg"><path d="M288 128l0 768 448 0L736 128 288 128zM416 851.2l-64 0 0-64 64 0L416 851.2zM416 729.6l-64 0 0-64 64 0L416 729.6zM416 608l-64 0 0-64 64 0L416 608zM544 851.2l-64 0 0-64 64 0L544 851.2zM544 729.6l-64 0 0-64 64 0L544 729.6zM544 608l-64 0 0-64 64 0L544 608zM672 851.2l-64 0 0-64 64 0L672 851.2zM672 729.6l-64 0 0-64 64 0L672 729.6zM672 608l-64 0 0-64 64 0L672 608zM672 448l-320 0L352 192l320 0L672 448z" /></svg>