<?xml version="1.0" standalone="no"?><!DOCTYPE svg PUBLIC "-//W3C//DTD SVG 1.1//EN" "http://www.w3.org/Graphics/SVG/1.1/DTD/svg11.dtd"><svg class="icon" width="200px" height="200.00px" viewBox="0 0 1024 1024" version="1.1" xmlns="http://www.w3.org/2000/svg"><path d="M513.038 225.136c42.179 0 82.236 9.106 118.295 25.464v-84.031h24.23l46.989 130.09a278.848 278.848 0 0 1 13.328 12.514c51.917 51.917 84.053 123.638 84.053 202.836s-32.136 150.924-84.053 202.842a290.762 290.762 0 0 1-13.691 12.841l-46.626 129.072h-24.23v-83.34c-36.059 16.358-76.116 25.471-118.295 25.471-43.313 0-84.386-9.615-121.216-26.808v84.677h-24.215l-48.021-132.946a279.023 279.023 0 0 1-9.375-8.967c-51.917-51.917-84.053-123.644-84.053-202.842s32.136-150.919 84.053-202.836a285.667 285.667 0 0 1 8.997-8.625l48.399-133.979h24.215v85.367c36.815-17.2 77.903-26.8 121.216-26.8z m-107.452-22.107h212.522V94.936c0-18.786-15.364-34.155-34.142-34.155H439.741c-18.793 0-34.155 15.37-34.155 34.155v108.093z m212.522 616.302H405.586v108.1c0 18.786 15.362 34.148 34.155 34.148h144.224c18.778 0 34.142-15.362 34.142-34.148v-108.1h0.001zM476.382 523.149l23.313 23.451 14.041-13.931a20.595 20.595 0 0 0 3.358-0.385l17.513 23.588 13.285-9.847-17.223-23.197a20.523 20.523 0 0 0 3.038-9.97l71.654-71.139-23.328-23.452-74.255 73.72-87.729-118.208-13.285 9.847 88.049 118.645a21.492 21.492 0 0 0-1.701 4.273l-16.73 16.605z m335.483-68.261h29.098c12.63 0 22.965 10.326 22.965 22.963v76.561c0 12.63-10.335 22.957-22.965 22.957h-29.098V454.888zM659.11 365.945c-37.384-37.375-89.024-60.506-146.071-60.506-57.032 0-108.674 23.132-146.056 60.506-37.382 37.382-60.506 89.03-60.506 146.064 0 57.04 23.124 108.688 60.506 146.07 37.382 37.382 89.024 60.506 146.056 60.506 57.047 0 108.688-23.124 146.071-60.506 37.382-37.382 60.506-89.03 60.506-146.07 0-57.034-23.124-108.682-60.506-146.064z" /></svg>